<svg width="24" height="24" viewBox="0 0 24 24" xmlns="http://www.w3.org/2000/svg">
<path d="M14 4.5C14 4.22386 14.2239 4 14.5 4H20.5L20.5125 4.00016C20.6364 4.00325 20.7547 4.05225 20.8445 4.13765L20.8536 4.14645C20.9458 4.23866 20.9944 4.35793 20.9995 4.4787C20.9998 4.48578 21 4.49288 21 4.5V10.5C21 10.7761 20.7761 11 20.5 11C20.2239 11 20 10.7761 20 10.5V5.7071L11.8536 13.8536C11.6583 14.0488 11.3417 14.0488 11.1464 13.8536C10.9512 13.6583 10.9512 13.3417 11.1464 13.1464L19.2929 5H14.5C14.2239 5 14 4.77614 14 4.5Z"/>
<path d="M4.5 6C4.22386 6 4 6.22386 4 6.5V20.5C4 20.6326 4.05268 20.7598 4.14645 20.8536C4.24021 20.9473 4.36739 21 4.5 21H18.5C18.7761 21 19 20.7761 19 20.5V14.5C19 14.2239 18.7761 14 18.5 14C18.2239 14 18 14.2239 18 14.5V20H5V7H10.5C10.7761 7 11 6.77614 11 6.5C11 6.22386 10.7761 6 10.5 6H4.5Z"/>
</svg>
