<svg width="19" height="19" viewBox="0 0 19 19" fill="grey" xmlns="http://www.w3.org/2000/svg">
    <path d="M9.53809 18.6191C14.4424 18.6191 18.5029 14.5498 18.5029 9.6543C18.5029 4.75 14.4336 0.689453 9.5293 0.689453C4.63379 0.689453 0.573242 4.75 0.573242 9.6543C0.573242 14.5498 4.64258 18.6191 9.53809 18.6191ZM9.34473 11.5352C8.87891 11.5352 8.61523 11.2891 8.61523 10.8145V10.7002C8.61523 9.80371 9.10742 9.3291 9.75781 8.87207C10.5488 8.31836 10.9268 8.01953 10.9268 7.4043C10.9268 6.71875 10.3906 6.25293 9.57324 6.25293C8.9668 6.25293 8.53613 6.55176 8.2373 7.04395C7.93848 7.38672 7.85938 7.65918 7.34082 7.65918C7.04199 7.65918 6.70801 7.43945 6.70801 7.03516C6.70801 6.88574 6.75195 6.72754 6.7959 6.58691C7.04199 5.75195 8.06152 5.02246 9.62598 5.02246C11.1729 5.02246 12.5176 5.82227 12.5176 7.33398C12.5176 8.42383 11.8848 8.95117 11.0059 9.53125C10.373 9.94434 10.083 10.2695 10.083 10.7793V10.8848C10.083 11.2451 9.80176 11.5352 9.34473 11.5352ZM9.32715 14.2334C8.7998 14.2334 8.34277 13.8115 8.34277 13.293C8.34277 12.7744 8.79102 12.3438 9.32715 12.3438C9.86328 12.3438 10.3115 12.7656 10.3115 13.293C10.3115 13.8203 9.85449 14.2334 9.32715 14.2334Z"
          />
</svg>
