<svg width="128" height="128" viewBox="0 0 128 128" fill="none" xmlns="http://www.w3.org/2000/svg">
<path d="M21.5 51.5C21.5 50.3954 22.3954 49.5 23.5 49.5H104.5C105.605 49.5 106.5 50.3954 106.5 51.5V111.5C106.5 112.605 105.605 113.5 104.5 113.5H23.5C22.3954 113.5 21.5 112.605 21.5 111.5V51.5Z" stroke="#3C3C3C" stroke-width="3"/>
<path d="M92.5 49V44C92.5 28.2599 79.7401 15.5 64 15.5C48.2599 15.5 35.5 28.2599 35.5 44V49.5" stroke="#3C3C3C" stroke-width="3"/>
<path d="M64 67.5C59.0294 67.5 55 71.5294 55 76.5C55 79.8313 56.8099 82.7398 59.5 84.296L59.5 93C59.5 95.4853 61.5147 97.5 64 97.5C66.4853 97.5 68.5 95.4853 68.5 93V84.296C71.1901 82.7398 73 79.8313 73 76.5C73 71.5294 68.9706 67.5 64 67.5Z" stroke="#3C3C3C" stroke-width="3"/>
</svg>
